# xmcd CD database file
#
# Track frame offsets:
#	150
#	13747
#	27156
#	42696
#	58174
#	70422
#	84586
#	107056
#	122208
#	137645
#	149314
#	162157
#	183789
#	201394
#	220362
#	239482
#	250999
#	264404
#
# Disc length: 3725 seconds
#
# Revision: 0
# Processed by: cddbd v1.5PL3 Copyright (c) Steve Scherf et al.
# Submitted via: CDex 1.51
#
DISCID=140e8b12
DTITLE=All The Best - Their Greatest Hits
DYEAR=1900
DGENRE=Country
TTITLE0=Midnite Flyer
TTITLE1=Four Strong Winds
TTITLE2=Crazy
TTITLE3=I'll Meet You Tonight
TTITLE4=Stand By Your Man
TTITLE5=Just A Closer Walk
TTITLE6=I'll Be Your Baby Tonight
TTITLE7=Please Help Me I'm Falling
TTITLE8=Galway Bay
TTITLE9=Massachusetts
TTITLE10=Love Letters ( Straight From The Heart )
TTITLE11=Slippin' Away
TTITLE12=Our Little Girl
TTITLE13=Painted Moon
TTITLE14=Yesterday
TTITLE15=Tulsa Time
TTITLE16=Beatles Medley
TTITLE17=Lodi
EXTD=
EXTT0=
EXTT1=
EXTT2=
EXTT3=
EXTT4=
EXTT5=
EXTT6=
EXTT7=
EXTT8=
EXTT9=
EXTT10=
EXTT11=
EXTT12=
EXTT13=
EXTT14=
EXTT15=
EXTT16=
EXTT17=
PLAYORDER=
